<mxfile host="app.diagrams.net" modified="2023-01-13T05:35:33.935Z" agent="5.0 (Windows NT 10.0; Win64; x64) AppleWebKit/537.36 (KHTML, like Gecko) Chrome/108.0.0.0 Safari/537.36" etag="Ot1y0foKkEGAVfsyJ3Yn" version="20.8.5" type="github">
  <diagram id="6a731a19-8d31-9384-78a2-239565b7b9f0" name="Page-1">
    <mxGraphModel dx="1094" dy="1545" grid="1" gridSize="10" guides="1" tooltips="1" connect="1" arrows="1" fold="1" page="1" pageScale="1" pageWidth="1169" pageHeight="827" background="none" math="0" shadow="0">
      <root>
        <mxCell id="0" />
        <mxCell id="1" parent="0" />
        <mxCell id="3" value="initialize data" style="shape=mxgraph.flowchart.data;strokeWidth=2;gradientColor=none;gradientDirection=north;fontStyle=0;html=1;" parent="1" vertex="1">
          <mxGeometry x="340.5" y="-780" width="159" height="50" as="geometry" />
        </mxCell>
        <mxCell id="4" value="Train start flag enable" style="shape=mxgraph.flowchart.data;strokeWidth=2;gradientColor=none;gradientDirection=north;fontStyle=0;html=1;" parent="1" vertex="1">
          <mxGeometry x="330" y="-419" width="180" height="59" as="geometry" />
        </mxCell>
        <mxCell id="F_rkb0ruy5koiBtM9Daw-57" value="" style="edgeStyle=orthogonalEdgeStyle;rounded=0;orthogonalLoop=1;jettySize=auto;html=1;" edge="1" parent="1" source="6" target="F_rkb0ruy5koiBtM9Daw-55">
          <mxGeometry relative="1" as="geometry" />
        </mxCell>
        <mxCell id="6" value="occupied?" style="shape=mxgraph.flowchart.decision;strokeWidth=2;gradientColor=none;gradientDirection=north;fontStyle=0;html=1;" parent="1" vertex="1">
          <mxGeometry x="360" y="-550" width="120" height="68" as="geometry" />
        </mxCell>
        <mxCell id="8" style="fontStyle=1;strokeColor=#003366;strokeWidth=1;html=1;" parent="1" source="3" edge="1">
          <mxGeometry relative="1" as="geometry">
            <mxPoint x="420" y="-680" as="targetPoint" />
          </mxGeometry>
        </mxCell>
        <mxCell id="9" style="entryX=0.5;entryY=0;entryPerimeter=0;fontStyle=1;strokeColor=#003366;strokeWidth=1;html=1;" parent="1" target="6" edge="1">
          <mxGeometry relative="1" as="geometry">
            <mxPoint x="420" y="-619" as="sourcePoint" />
          </mxGeometry>
        </mxCell>
        <mxCell id="10" value="" style="edgeStyle=elbowEdgeStyle;elbow=horizontal;entryX=0.5;entryY=0.91;entryPerimeter=0;exitX=1;exitY=0.5;exitPerimeter=0;fontStyle=1;strokeColor=#003366;strokeWidth=1;html=1;" parent="1" source="6" target="51" edge="1">
          <mxGeometry x="481" y="-900.5" width="100" height="100" as="geometry">
            <mxPoint x="850" y="-482" as="sourcePoint" />
            <mxPoint x="865.395" y="-610.5" as="targetPoint" />
            <Array as="points">
              <mxPoint x="645" y="-529" />
            </Array>
          </mxGeometry>
        </mxCell>
        <mxCell id="11" value="no" style="text;fontStyle=0;html=1;strokeColor=none;gradientColor=none;fillColor=none;strokeWidth=2;" parent="1" vertex="1">
          <mxGeometry x="480" y="-548" width="40" height="26" as="geometry" />
        </mxCell>
        <mxCell id="12" value="" style="edgeStyle=elbowEdgeStyle;elbow=horizontal;fontColor=#001933;fontStyle=1;strokeColor=#003366;strokeWidth=1;html=1;" parent="1" source="6" target="4" edge="1">
          <mxGeometry x="100" y="-929" width="100" height="100" as="geometry">
            <mxPoint x="100" y="-829" as="sourcePoint" />
            <mxPoint x="200" y="-929" as="targetPoint" />
          </mxGeometry>
        </mxCell>
        <mxCell id="14" value="yes" style="text;fontStyle=0;html=1;strokeColor=none;gradientColor=none;fillColor=none;strokeWidth=2;align=center;" parent="1" vertex="1">
          <mxGeometry x="420" y="-482" width="40" height="26" as="geometry" />
        </mxCell>
        <mxCell id="15" value="final project" style="shape=mxgraph.flowchart.document;strokeWidth=2;gradientColor=none;gradientDirection=north;fontStyle=0;html=1;" parent="1" vertex="1">
          <mxGeometry x="580" y="-414" width="140" height="70" as="geometry" />
        </mxCell>
        <mxCell id="16" value="" style="edgeStyle=elbowEdgeStyle;elbow=horizontal;exitX=0.905;exitY=0.5;exitPerimeter=0;fontStyle=1;strokeColor=#003366;strokeWidth=1;html=1;" parent="1" source="4" target="15" edge="1">
          <mxGeometry x="100" y="-929" width="100" height="100" as="geometry">
            <mxPoint x="100" y="-829" as="sourcePoint" />
            <mxPoint x="200" y="-929" as="targetPoint" />
          </mxGeometry>
        </mxCell>
        <mxCell id="17" value="" style="edgeStyle=elbowEdgeStyle;elbow=horizontal;fontStyle=1;strokeColor=#003366;strokeWidth=1;html=1;" parent="1" source="4" edge="1">
          <mxGeometry x="100" y="-929" width="100" height="100" as="geometry">
            <mxPoint x="100" y="-829" as="sourcePoint" />
            <mxPoint x="420" y="-289" as="targetPoint" />
          </mxGeometry>
        </mxCell>
        <mxCell id="18" value="material&#xa;balance" style="shape=mxgraph.flowchart.predefined_process;strokeWidth=2;gradientColor=none;gradientDirection=north;fontStyle=0;html=1;" parent="1" vertex="1">
          <mxGeometry x="326" y="-290" width="190" height="80" as="geometry" />
        </mxCell>
        <mxCell id="25" value="" style="edgeStyle=elbowEdgeStyle;elbow=horizontal;exitX=0.5;exitY=1;exitPerimeter=0;fontStyle=1;strokeColor=#003366;strokeWidth=1;html=1;exitDx=0;exitDy=0;" parent="1" source="18" edge="1">
          <mxGeometry x="101" y="-1203" width="100" height="100" as="geometry">
            <mxPoint x="421" y="-202" as="sourcePoint" />
            <mxPoint x="421" y="-123" as="targetPoint" />
          </mxGeometry>
        </mxCell>
        <mxCell id="26" value="" style="edgeStyle=elbowEdgeStyle;elbow=horizontal;exitX=0;exitY=0.5;exitPerimeter=0;entryX=0;entryY=0.5;entryPerimeter=0;fontStyle=1;strokeColor=#003366;strokeWidth=1;html=1;" parent="1" source="28" target="6" edge="1">
          <mxGeometry x="100" y="-929" width="100" height="100" as="geometry">
            <mxPoint x="100" y="-829" as="sourcePoint" />
            <mxPoint x="200" y="-929" as="targetPoint" />
            <Array as="points">
              <mxPoint x="260" y="-79" />
            </Array>
          </mxGeometry>
        </mxCell>
        <mxCell id="28" value="investor&#xa;disapproves&#xa; investment?" style="shape=mxgraph.flowchart.decision;strokeWidth=2;gradientColor=none;gradientDirection=north;fontStyle=0;html=1;" parent="1" vertex="1">
          <mxGeometry x="356" y="-122" width="130" height="100" as="geometry" />
        </mxCell>
        <mxCell id="29" value="agreement?" style="shape=mxgraph.flowchart.decision;strokeWidth=2;gradientColor=none;gradientDirection=north;fontStyle=0;html=1;" parent="1" vertex="1">
          <mxGeometry x="611" y="-122" width="130" height="100" as="geometry" />
        </mxCell>
        <mxCell id="31" value="" style="edgeStyle=elbowEdgeStyle;elbow=horizontal;exitX=1;exitY=0.5;exitPerimeter=0;entryX=0;entryY=0.5;entryPerimeter=0;fontStyle=1;strokeColor=#003366;strokeWidth=1;html=1;" parent="1" source="28" target="29" edge="1">
          <mxGeometry x="101" y="-1332" width="100" height="100" as="geometry">
            <mxPoint x="101" y="-1232" as="sourcePoint" />
            <mxPoint x="201" y="-1332" as="targetPoint" />
          </mxGeometry>
        </mxCell>
        <mxCell id="32" value="terminate&#xa;contract&#xa;" style="shape=mxgraph.flowchart.merge_or_storage;strokeWidth=2;gradientColor=none;gradientDirection=north;fontStyle=0;html=1;" parent="1" vertex="1">
          <mxGeometry x="861" y="-32" width="130" height="80.5" as="geometry" />
        </mxCell>
        <mxCell id="33" value="" style="edgeStyle=elbowEdgeStyle;elbow=vertical;exitX=1;exitY=0.5;exitPerimeter=0;entryX=0.5;entryY=0;entryPerimeter=0;fontStyle=1;strokeColor=#003366;strokeWidth=1;html=1;" parent="1" source="29" target="32" edge="1">
          <mxGeometry x="101" y="-1332" width="100" height="100" as="geometry">
            <mxPoint x="101" y="-1232" as="sourcePoint" />
            <mxPoint x="201" y="-1332" as="targetPoint" />
            <Array as="points">
              <mxPoint x="841" y="-72" />
            </Array>
          </mxGeometry>
        </mxCell>
        <mxCell id="35" value="" style="edgeStyle=elbowEdgeStyle;elbow=vertical;exitX=0.5;exitY=1;exitPerimeter=0;fontColor=#001933;fontStyle=1;strokeColor=#003366;strokeWidth=1;html=1;" parent="1" source="28" edge="1">
          <mxGeometry x="101" y="-1332" width="100" height="100" as="geometry">
            <mxPoint x="101" y="-1232" as="sourcePoint" />
            <mxPoint x="421" y="129" as="targetPoint" />
          </mxGeometry>
        </mxCell>
        <mxCell id="36" value="" style="edgeStyle=elbowEdgeStyle;elbow=vertical;exitX=0.5;exitY=1;exitPerimeter=0;fontStyle=1;strokeColor=#003366;strokeWidth=1;html=1;" parent="1" source="29" edge="1">
          <mxGeometry x="101" y="-1332" width="100" height="100" as="geometry">
            <mxPoint x="101" y="-1232" as="sourcePoint" />
            <mxPoint x="421" y="109" as="targetPoint" />
          </mxGeometry>
        </mxCell>
        <mxCell id="47" value="yes" style="text;fontColor=#001933;fontStyle=0;html=1;strokeColor=none;gradientColor=none;fillColor=none;strokeWidth=2;" parent="1" vertex="1">
          <mxGeometry x="486" y="-98" width="40" height="26" as="geometry" />
        </mxCell>
        <mxCell id="48" value="no" style="text;fontColor=#001933;fontStyle=0;html=1;strokeColor=none;gradientColor=none;fillColor=none;strokeWidth=2;align=center;" parent="1" vertex="1">
          <mxGeometry x="421" y="-22" width="40" height="26" as="geometry" />
        </mxCell>
        <mxCell id="49" value="yes" style="text;fontColor=#001933;fontStyle=0;html=1;strokeColor=none;gradientColor=none;fillColor=none;strokeWidth=2;align=center;" parent="1" vertex="1">
          <mxGeometry x="676" y="-22" width="40" height="26" as="geometry" />
        </mxCell>
        <mxCell id="50" value="no" style="text;fontColor=#001933;fontStyle=0;html=1;strokeColor=none;gradientColor=none;fillColor=none;strokeWidth=2;" parent="1" vertex="1">
          <mxGeometry x="741" y="-98" width="40" height="26" as="geometry" />
        </mxCell>
        <mxCell id="51" value="iron out&#xa;obscurities &#xa;with investor" style="shape=mxgraph.flowchart.paper_tape;strokeWidth=2;gradientColor=none;gradientDirection=north;fontStyle=0;html=1;" parent="1" vertex="1">
          <mxGeometry x="570" y="-629" width="150" height="81" as="geometry" />
        </mxCell>
        <mxCell id="52" value="" style="edgeStyle=elbowEdgeStyle;elbow=horizontal;exitX=0.5;exitY=0.09;exitPerimeter=0;entryX=0.905;entryY=0.5;entryPerimeter=0;fontStyle=1;strokeColor=#003366;strokeWidth=1;html=1;" parent="1" source="51" edge="1">
          <mxGeometry x="100" y="-929" width="100" height="100" as="geometry">
            <mxPoint x="100" y="-829" as="sourcePoint" />
            <mxPoint x="484.395" y="-649" as="targetPoint" />
            <Array as="points">
              <mxPoint x="645" y="-629" />
            </Array>
          </mxGeometry>
        </mxCell>
        <mxCell id="54" value="" style="edgeStyle=elbowEdgeStyle;elbow=horizontal;fontStyle=1;strokeColor=#003366;strokeWidth=1;html=1;" parent="1" edge="1">
          <mxGeometry x="60" y="-1198.5" width="100" height="100" as="geometry">
            <mxPoint x="330" y="-40" as="sourcePoint" />
            <mxPoint x="310" y="-648.5" as="targetPoint" />
            <Array as="points">
              <mxPoint x="180" y="-228.5" />
            </Array>
          </mxGeometry>
        </mxCell>
        <mxCell id="F_rkb0ruy5koiBtM9Daw-56" value="" style="edgeStyle=orthogonalEdgeStyle;rounded=0;orthogonalLoop=1;jettySize=auto;html=1;" edge="1" parent="1" source="F_rkb0ruy5koiBtM9Daw-55">
          <mxGeometry relative="1" as="geometry">
            <mxPoint x="420" y="-550" as="targetPoint" />
          </mxGeometry>
        </mxCell>
        <mxCell id="F_rkb0ruy5koiBtM9Daw-55" value="check for&lt;br style=&quot;border-color: var(--border-color);&quot;&gt;&lt;span style=&quot;&quot;&gt;first track occupancy&lt;/span&gt;" style="rounded=1;whiteSpace=wrap;html=1;absoluteArcSize=1;arcSize=14;strokeWidth=2;" vertex="1" parent="1">
          <mxGeometry x="360" y="-680" width="120" height="60" as="geometry" />
        </mxCell>
      </root>
    </mxGraphModel>
  </diagram>
</mxfile>
